<svg xmlns="http://www.w3.org/2000/svg" version="1.1" xmlns:xlink="http://www.w3.org/1999/xlink" xmlns:svgjs="http://svgjs.com/svgjs" width="1440" height="560" preserveAspectRatio="none" viewBox="0 0 1440 560"><g mask="url(&quot;#SvgjsMask1757&quot;)" fill="none"><rect width="1440" height="560" x="0" y="0" fill="rgba(26, 104, 186, 1)"></rect><path d="M0 0L130.27 0L0 210.97z" fill="rgba(255, 255, 255, .1)"></path><path d="M0 210.97L130.27 0L814.15 0L0 360.7z" fill="rgba(255, 255, 255, .075)"></path><path d="M0 360.7L814.15 0L941.92 0L0 418.87z" fill="rgba(255, 255, 255, .05)"></path><path d="M0 418.87L941.92 0L1048.31 0L0 467.44z" fill="rgba(255, 255, 255, .025)"></path><path d="M1440 560L1416.03 560L1440 313.19z" fill="rgba(0, 0, 0, .1)"></path><path d="M1440 313.19L1416.03 560L699.4499999999999 560L1440 242.16z" fill="rgba(0, 0, 0, .075)"></path><path d="M1440 242.15999999999997L699.4499999999999 560L656.02 560L1440 134.26999999999998z" fill="rgba(0, 0, 0, .05)"></path><path d="M1440 134.26999999999998L656.02 560L311.26 560L1440 53.42999999999998z" fill="rgba(0, 0, 0, .025)"></path></g><defs><mask id="SvgjsMask1757"><rect width="1440" height="560" fill="#ffffff"></rect></mask></defs></svg>